<?xml version="1.0" encoding="utf-8"?>
<!-- Generator: Adobe Illustrator 21.0.0, SVG Export Plug-In . SVG Version: 6.00 Build 0)  -->
<svg version="1.1" id="Layer_1" xmlns="http://www.w3.org/2000/svg" xmlns:xlink="http://www.w3.org/1999/xlink" x="0px" y="0px"
	 viewBox="0 0 133 96.7" style="enable-background:new 0 0 133 96.7;" xml:space="preserve">
<style type="text/css">
	.st0{fill:#E2001A;}
</style>
<path class="st0" d="M74.1,76.3c0-0.3-0.1-0.4-0.1-0.7c0.1-0.6-0.1-0.6-0.2-0.9s0-0.3-0.1-0.7c-0.2-0.5-0.6-2.1-0.8-2.6
	c-0.1-0.2-0.1-0.4-0.2-0.6l0,0c-0.1-0.3-0.2-0.6-0.3-0.8c-0.1-0.3-0.1-0.4-0.1-0.7c-0.2-0.6-0.7-1.2-0.8-1.5
	c-0.1-0.3-0.2-0.7-0.3-0.8c-0.1-0.1-0.3-0.4-0.4-0.5c0-0.1-0.1-0.4-0.2-0.5s-0.5-0.3-0.5-0.6c0-0.3,0.1-0.2-0.1-0.5
	c-0.1-0.3-0.4-0.5-0.6-0.8c-0.1-0.3-0.8-1.3-1.4-1.8c-0.2-0.2-0.6-0.3-0.7-0.6c-0.1-0.3-0.5-0.6-0.7-0.7c-0.1-0.1-0.3-0.1-0.3-0.3
	c-0.1-0.1-0.1-0.3-0.3-0.4c-0.3-0.1-0.3-0.2-0.3-0.2s-0.2-0.2-0.4-0.5c-0.2-0.3-0.6-0.5-0.8-0.6c-0.2-0.1-0.2-0.1-0.4-0.3
	c-0.1-0.1-0.1-0.2-0.4-0.1c-0.3,0-0.8,1.9-1,2.1c-0.2,0.3-0.4,0.7-0.5,1c0,0.3-1.4,3.2-1.7,3.7c-0.3,0.4-0.4,0.7-0.6,1.3
	s-0.2,0.7-0.4,0.9c-0.2,0.3-0.4,0.6-0.7,1.2l-0.7,1.7c0,0-0.1,0.1-0.2,0.3l0,0c-0.2,0.3-0.5,0.9-0.9,1.6c-0.6,1.1-0.6,1.4-0.8,1.6
	c-0.2,0.2-0.3,0.7-0.5,1c-0.2,0.4-0.4,0.7-0.6,1.1c-0.3,0.4-0.5,1.1-0.8,1.5c0,0-0.3,1-0.5,1.2s-0.5,0.8-0.6,1.1
	c-0.1,0.4-0.4,0.8-0.5,1c-0.2,0.2-0.2,0.4-0.5,1c-0.3,0.5-0.8,1.5-1.2,2c-0.4,0.5-0.5,1.2-0.7,1.5c-0.3,0.4-0.1,0.5-0.4,0.7
	s-0.2,0.3-0.5,0.3c-0.4,0-0.5,0.2-0.5-0.2c0-0.3,0.1-0.5-0.1-0.5s-0.1-0.1-0.4,0.2c-0.2,0.3-0.3,0.2-0.5,0.3c-0.3,0.1,0,0.1-0.4,0.2
	c-0.5,0.1-0.3,0-0.6,0s-0.2,0.2-0.5,0.2c-0.3,0.1-0.6,0.1-0.6-0.1s0.1,0,0.1-0.3c-0.1-0.3,0-0.4-0.2-0.3s-0.4,0.1-0.5,0
	c-0.1-0.2-0.1-0.2-0.3-0.3c-0.2,0-0.4,0-0.6-0.1c-0.1-0.1-0.3-0.3-0.5-0.4c-0.3-0.1-0.5,0-0.8,0.2c-0.3,0.1-0.1,0.3-0.3,0.3
	s-0.3,0.2-0.4-0.1c-0.1-0.3,0-0.6-0.2-0.7s-0.3,0-0.6,0s-0.1-0.2-0.2-0.4c-0.1-0.2-0.2,0-0.5-0.2s-0.1-0.2-0.3-0.3
	c-0.2-0.1-0.4,0-0.6,0c-0.3,0-0.5-0.1-0.6-0.3c-0.2-0.3-0.2-1.1-0.2-1.3c0-0.1-0.1-0.2-0.3-0.2s-1.4,0.7-1.6,0.8
	C37,83,32,86,31.6,86.3c-0.4,0.3-0.6,0.6-0.6,1c-0.1,0.4-0.1,1.8,0,2.6c0.1,1.1,0.7,3.2,1.1,3.8c0.4,0.7,1.1,1.9,1.9,2.5
	c0.4,0.3,0.7,0.5,1,0.5s2.5-1.2,3.5-1.7c1.1-0.5,5.9-3,6.5-3.3s10.8-5.4,11.3-5.6c0.5-0.3,9.8-4.7,10.3-4.9c0.5-0.3,7.5-3.6,7.6-3.7
	s0.4-0.2,0.3-0.4C74.3,76.9,74.1,76.7,74.1,76.3 M91.2,70.8h-1.3c0,0.2,0,0.3,0,0.5C89.9,71.3,90.4,71.1,91.2,70.8 M38.9,78.8
	c1-0.4,0.7-0.7,0.9-1c0.1-0.3-0.1-0.5,0.3-1c0.3-0.3,1.1-2.9,1.1-2.9s0.5-1,0.4-1.2c-0.1-0.3,0.3-1.1,0.6-1.9l0,0
	c0.2-0.5,0.4-1,0.5-1.3c0.1-0.4,0.6-1.4,0.8-1.7c0.1-0.3,0.3-0.9,0.5-1.5c0.2-0.5,1.1-3.1,1.1-3.1s1-1.9,1.1-2.6
	c0-0.2,0.6-1,0.6-1.4c0.1-0.4,0-0.6,0.2-0.8c0.2-0.2,0.9-1.4,0.9-1.8s0.7-1.4,1.2-2.3c0.5-1.5,0.5-1.9,1-2.5
	c0.4-0.5,0.5-1.3,0.6-1.7c0.1-0.5,0.3-1,0.5-1.4s0.7-1.3,0.8-1.5c0.1-0.2,0.1-0.8,0.2-1.1c0-0.3,0.4-0.6,0.5-0.8
	c0.1-0.4,0.1-0.3,0.1-0.5v-0.1v-0.5c0.1-0.2,0.3-0.5,0.2-0.8c-0.2-0.3-0.9,0.2-1.8,0.4c-0.2,0.1-0.8,0.4-1.8,0.8l0,0
	c-5.7,2.7-22.5,10.9-22.5,10.9l-15.7,8c0,0-6.6,3.3-7.5,4.4c-0.4,0.5-0.5,1.4-0.3,2.7l0,0c0.1,0.6,0.3,1.3,0.5,2.1
	c0.7,2.7,1.3,4,1.8,4.3c1.2,0.8,4.3-1.3,7.3-2.5c6.8-2.6,10.1-3.5,10.1-3.5s0.8-0.1,0.4,0.1c-1.4,1-6.7,3.5-9.2,4.9
	c-3.2,1.8-12.8,6.9-13.2,7.5c-0.5,0.6-1.2,1-1.1,2.2c0,0,0.3,2.3,1.6,5c0.8,1.6,2.1,3.3,3.1,3.6c1,0.3,1.3-0.5,2.9-1.1
	C8.1,93,31.7,81.8,31.7,81.8S37.9,79.1,38.9,78.8 M127.8,46.7c-0.2-0.6-0.4-1.3-0.6-1.9l0,0c-0.5-1.5-1-3-1.4-3.3
	c-0.3-0.3-0.8-0.5-1.4-0.4c-0.5,0.1-11.6,2.6-11.6,2.6s-1.9,0.5-4.4,1.1l0,0c-3.7,0.9-8.7,2.2-10,2.5c-3,0.7-15.6,4.6-17.9,5.5
	c-0.1,0.1-0.6,0.1-0.5,0.4c0,0.3,0.2,0.2,0.3,0.5c0.2,0.2,0.7,0.6,1.4,1.2c0.4,0.5,0.8,1.1,1.1,1.4c0.3,0.3,0.4,0.5,0.5,0.7
	s0.2,0.3,0.3,0.4c0.1,0.1,0.1,0.3,0.2,0.6c0.1,0.3,0.2,0.5,0.5,0.8c0.2,0.3,1.9,1.8,2.1,2.4c0.1,0.4,1,1.4,1,1.4s0.2,0.5,0.4,0.9
	c0.5,1.2,1.4,3.6,1.5,3.7c-0.1-0.4-0.1-0.5,0-0.2c0,0.2,0,0.2,0,0.2c0.1,0.8,0.4,2.4,0.5,3.6h1.3c1.6-0.6,4.2-1.6,6.2-2.3
	c4-1.5,7.5-2.6,10.3-3.6c1.2-0.4-0.3-5.9-0.3-5.9s6.9-2.3,10.4-3.3c2-0.6,9-2.3,9.3-2.4c0.5-0.2,0.7-1,0.8-1.3
	C127.9,51.6,128.4,48.8,127.8,46.7 M16.1,46.8c0.2,0,0.4,0,0.4,0.1c0.1,0.1,0.3,0.2,0.4,0.2c0.1,0,0.2,0,0.2,0.1
	c0.1,0.1,0.1,0.4,0.3,0.5c0.2,0.2,0.3,0.2,0.4,0.3c0.1,0.2,0.2,0.2,0.2,0.4c0,0.2,0,0.3,0,0.4c0.1,0,0.1,0.1,0.1,0.3
	c0,0.2-0.1,0.6,0,0.6s0.1,0,0.1,0.1c0,0.2-0.1,0.1-0.1,0.2s0.1,0.1,0.1,0.1s0,0.1,0,0.2c0,0.2,0.1,0.3,0.1,0.3
	c0.2,0.1,0.5,0.1,0.6,0s0.2-0.2,0.4-0.3c0.3-0.1,0.4-0.4,0.7-0.6s0.4-0.4,0.6-0.4c0.2,0,0.4-0.3,0.6-0.3c0.2,0,0.4-0.2,0.6-0.2
	c0.2,0,0.3,0,0.4-0.2c0.1-0.1,0.1-0.2,0.2-0.2c0.1,0,0,0,0.2-0.2c0.2-0.1,0.2-0.2,0.3-0.3c0.1,0,0.2-0.3,0.5-0.4
	c0.2-0.1,0.5-0.3,0.8-0.3s0.1,0,0.4,0.2c0.2,0.2,0.3,0.2,0.5,0.2c0.3,0.1,0.3-0.1,0.4,0.1c0,0.2,0.1,0.3,0.4,0.3
	c0.3,0,0.4-0.2,0.7-0.4c1.9-1,4.1-2.1,6.5-3.2H17.9c-0.1,0.2-0.2,0.3-0.3,0.4c-0.2,0.1-0.2,0.1-0.3,0.2s-0.3,0-0.4,0.2
	c-0.1,0.2-0.2,0.3-0.3,0.3s-0.2,0.1-0.3,0.2s-0.2,0.1-0.2,0.4C16,46.6,16,46.8,16.1,46.8 M92.4,44.7c0.4-0.2,0.7-0.3,0.8-0.4
	c0.8-0.4,7-3.2,7.7-3.5c0.7-0.4,7.1-3.2,7.1-3.2s1.8-0.7,3.1-1.4c0.9-0.4,1.2-0.5,1.5-1.1c0.1-0.3-0.7-3.2-1-3.9
	c-0.3-0.6-0.9-2.5-1.9-3.9c-1-1.5-1.8-2.4-2-2.6c-0.1-0.2-0.5-0.3-0.8-0.3c-0.4,0-1.5,0.3-1.5,0.3s-3.7,1.2-4.6,1.5
	c-0.9,0.2-22.3,7.2-25.1,8.3c-2.8,1.1-3.5,1.1-8.6,3.3c-1.1,0.5-1.7,0.6-1.8,1c0,0.2,0.2,0.3,0.5,0.5c0.4,0.3,1.4,1,1.7,1.1
	c0.6,0.3,1.5,1.3,1.5,1.3s0.4,0.7,0.9,1.1s0.6,0.4,1.3,1.1c0.2,0.2,0.4,0.4,0.7,0.7l0,0c0.5,0.5,1.1,1,1.1,1l0.5,0.2l0.7,0.9
	c0,0,0.3,0.2,0.5,0.5c0.2,0.2,1.3,1.4,1.3,1.4s0.5,0.4,0.8,0.7c0.3,0.4,0.6,0.6,0.7,0.9s0.4,0.6,0.7,0.9c0.4,0.2,0.7-0.2,1.1-0.3
	c0.4-0.2,3.1-1.6,3.6-1.8C83.5,49,90.1,45.9,92.4,44.7 M52,14.7c0,0.2,0.1,0.3,0.3,0.6c0.1,0.2,0,0.3,0.2,0.5
	c0.2,0.3,0.1,0.2,0.4,0.5c0.2,0.2,0.2,0.5,0.5,1.1s0.4,0.6,0.6,0.9c0.3,0.3,0.5,0.5,0.8,0.7c0.5,0.3,0.2,0.7,0.8,0.7
	c0.5,0,0.9-0.1,1.3,0c0.3,0.1,0.1,0,0.5,0s-0.1-0.1,0.4-0.1s0.1,0.4,0.7,0.4c0,0,0.3,0.1,0.9,0s1-0.2,1.2-0.6
	c0.3-0.8,0.6-0.8,0.9-1.1c0.3-0.3,0.3-0.1,0.6-0.2c0.3-0.1,0.3-0.8,0.6-1c0.4-0.3,0.9-1,1.2-1.2c0.4-0.3,1.2-1.6,1.7-2.5
	s1-2.4,1.1-2.9s-0.1-0.7,0.1-1.1s0.2-1,0.2-1.5c0-0.4-0.1-1-0.2-1.3s-0.1-0.8-0.1-0.8s-0.3-0.5-0.3-0.7c0-0.3-0.1-0.6-0.4-0.8
	c-0.3-0.2-0.4-0.8-0.6-1.2c-0.2-0.4-0.5-0.4-0.5-0.8s-0.8-0.9-1-1.2c-0.3-0.3-0.9-0.9-1.2-0.9c-0.3,0-0.3,0-0.6,0
	c-0.3,0-0.3-0.2-0.5-0.2s-0.7-0.1-0.9,0.2c-0.1,0.3-0.3,0.2-0.5,0.2c-0.3,0-0.4,0.1-0.6,0.2S59.1,0.7,59,0.9
	c-0.1,0.2-0.5,0.3-0.7,0.4S57.6,1.7,57.2,2c-0.4,0.4-2.3,1.6-3.5,3.6c-1.2,1.9-1,2.6-1.3,3.2c-0.3,0.7-0.4,1.4-0.7,1.9
	c-0.2,0.6-0.1,2.9-0.1,3.4C51.7,14.4,52,14.5,52,14.7 M71.8,29.6c11-3.3,20.2-5.9,26.3-7.2c0,0,1.3-0.3,1.6-0.4
	c0.3,0,0.4-0.1,0.5-0.2s0.2-0.6,0.2-0.8c-0.1-0.3-0.3-0.6-0.2-0.8c0.1-0.2,0.5-1.1,0.5-1.3c0-0.2-0.2-0.4-0.3-0.5
	c-0.1-0.1,0.1-0.6,0-0.8c-0.1-0.2-0.4-0.4-0.6-0.5s-0.3-0.9-0.3-1s0-0.3,0-0.3s0.1-0.1,0-0.2c-0.2-0.1-0.3-0.2-0.4-0.3
	c0-0.2,0.1-0.2,0-0.3c-0.1-0.1-0.2-0.2-0.2-0.3c-0.1,0,0-0.2,0-0.4c0-0.2,0-0.4,0-0.4l-0.5-0.4c-0.1-0.1-0.1-0.1-0.1-0.3
	c0-0.1,0-0.2-0.2-0.3c-0.2-0.1-0.8-0.2-0.8-0.2s-0.4-0.1-0.6,0s-0.3,0-0.5,0.2c-0.3,0.1-0.6,0.3-0.8,0.3c-0.2,0-0.4,0.1-0.6,0
	s-0.2-0.2-1,0.1c-0.8,0.3-8,2.3-8,2.3s-19.7,5.8-31.7,10.8c-3.9,1.6-20,8.3-35.3,17.8c-0.3,0.2-0.5,0.3-0.6,0.6
	c0,0.1-0.1,0.1-0.1,0.2h15.2c8.4-3.9,19.2-8.2,26.3-10.8C63.1,32.6,65.1,31.8,71.8,29.6"/>
</svg>
